<svg width="20" height="20" viewBox="0 0 20 20" fill="none" xmlns="http://www.w3.org/2000/svg">
<path d="M1.11111 9.12263H7.77778C8.07246 9.12263 8.35508 9.01533 8.56345 8.82432C8.77183 8.63331 8.88889 8.37424 8.88889 8.10412V1.99301C8.88889 1.72288 8.77183 1.46381 8.56345 1.2728C8.35508 1.0818 8.07246 0.974487 7.77778 0.974487H1.11111C0.816426 0.974487 0.533811 1.0818 0.325437 1.2728C0.117063 1.46381 0 1.72288 0 1.99301V8.10412C0 8.37424 0.117063 8.63331 0.325437 8.82432C0.533811 9.01533 0.816426 9.12263 1.11111 9.12263ZM12.2222 9.12263H18.8889C19.1836 9.12263 19.4662 9.01533 19.6746 8.82432C19.8829 8.63331 20 8.37424 20 8.10412V1.99301C20 1.72288 19.8829 1.46381 19.6746 1.2728C19.4662 1.0818 19.1836 0.974487 18.8889 0.974487H12.2222C11.9275 0.974487 11.6449 1.0818 11.4365 1.2728C11.2282 1.46381 11.1111 1.72288 11.1111 1.99301V8.10412C11.1111 8.37424 11.2282 8.63331 11.4365 8.82432C11.6449 9.01533 11.9275 9.12263 12.2222 9.12263ZM1.11111 19.3078H7.77778C8.07246 19.3078 8.35508 19.2005 8.56345 19.0095C8.77183 18.8185 8.88889 18.5594 8.88889 18.2893V12.1782C8.88889 11.9081 8.77183 11.649 8.56345 11.458C8.35508 11.267 8.07246 11.1597 7.77778 11.1597H1.11111C0.816426 11.1597 0.533811 11.267 0.325437 11.458C0.117063 11.649 0 11.9081 0 12.1782V18.2893C0 18.5594 0.117063 18.8185 0.325437 19.0095C0.533811 19.2005 0.816426 19.3078 1.11111 19.3078ZM15.5556 19.3078C18.0067 19.3078 20 17.4806 20 15.2337C20 12.9869 18.0067 11.1597 15.5556 11.1597C13.1044 11.1597 11.1111 12.9869 11.1111 15.2337C11.1111 17.4806 13.1044 19.3078 15.5556 19.3078Z" fill="white" fill-opacity="0.6"/>
</svg>
