<svg width="20" height="21" viewBox="0 0 20 21" fill="none" xmlns="http://www.w3.org/2000/svg">
<path d="M11.145 1.38929C10.8356 1.12291 10.4259 0.974487 10 0.974487C9.57415 0.974487 9.16445 1.12291 8.855 1.38929L0.781668 8.33642C0.53447 8.54941 0.337637 8.8061 0.203228 9.09079C0.0688184 9.37547 -0.000335953 9.68214 1.22709e-06 9.99202V18.4445C0.000443062 19.048 0.26403 19.6265 0.732823 20.0531C1.20162 20.4796 1.83725 20.7193 2.5 20.7193H5C5.66304 20.7193 6.29893 20.4794 6.76777 20.0526C7.23661 19.6257 7.5 19.0467 7.5 18.443V14.6492C7.5 14.448 7.5878 14.255 7.74408 14.1127C7.90036 13.9704 8.11232 13.8905 8.33333 13.8905H11.6667C11.8877 13.8905 12.0996 13.9704 12.2559 14.1127C12.4122 14.255 12.5 14.448 12.5 14.6492V18.443C12.5 19.0467 12.7634 19.6257 13.2322 20.0526C13.7011 20.4794 14.337 20.7193 15 20.7193H17.5C18.163 20.7193 18.7989 20.4794 19.2678 20.0526C19.7366 19.6257 20 19.0467 20 18.443V9.9905C19.9999 9.68077 19.9304 9.37432 19.7957 9.08991C19.661 8.80549 19.464 8.5491 19.2167 8.33642L11.145 1.38625V1.38929Z" fill="white" fill-opacity="0.87"/>
</svg>
