<svg width="20" height="20" viewBox="0 0 20 20" fill="none" xmlns="http://www.w3.org/2000/svg">
<path d="M19.2215 6.60095C18.7197 5.50298 17.9896 4.50501 17.0719 3.66265C16.157 2.81882 15.0702 2.14793 13.8732 1.68806C12.647 1.21468 11.3295 0.972022 9.99895 0.974506H9.95422C8.60092 0.980658 7.29235 1.22671 6.05985 1.71062C4.87313 2.1752 3.79653 2.84728 2.89022 3.68931C1.98145 4.52977 1.25971 5.52426 0.765204 6.61735C0.251878 7.75405 -0.00822563 8.97338 0.000198256 10.2036C0.00690883 11.6266 0.378227 13.0394 1.07165 14.3025V17.4191C1.07165 17.94 1.53245 18.3623 2.09837 18.3623H5.49392C6.87825 19.0027 8.40588 19.3396 9.95645 19.3466H10.0034C11.3411 19.3466 12.6362 19.1087 13.8575 18.6433C15.0485 18.1889 16.1312 17.5258 17.0451 16.6912C17.9666 15.8526 18.6914 14.8725 19.1991 13.7796C19.7248 12.6477 19.9932 11.4441 19.9999 10.2015C20.0044 8.95282 19.7405 7.741 19.2215 6.60095ZM5.53418 11.1448C4.94365 11.1448 4.46273 10.7039 4.46273 10.1605C4.46273 9.61717 4.94365 9.17632 5.53418 9.17632C6.12471 9.17632 6.60564 9.61717 6.60564 10.1605C6.60564 10.7039 6.12695 11.1448 5.53418 11.1448ZM9.99895 11.1448C9.40842 11.1448 8.9275 10.7039 8.9275 10.1605C8.9275 9.61717 9.40842 9.17632 9.99895 9.17632C10.5895 9.17632 11.0704 9.61717 11.0704 10.1605C11.0704 10.7039 10.5895 11.1448 9.99895 11.1448ZM14.4637 11.1448C13.8732 11.1448 13.3923 10.7039 13.3923 10.1605C13.3923 9.61717 13.8732 9.17632 14.4637 9.17632C15.0543 9.17632 15.5352 9.61717 15.5352 10.1605C15.5352 10.7039 15.0543 11.1448 14.4637 11.1448Z" fill="white" fill-opacity="0.6"/>
</svg>
