<svg width="20" height="21" viewBox="0 0 20 21" fill="none" xmlns="http://www.w3.org/2000/svg">
<path d="M17.6905 17.1566C18.717 15.9383 19.431 14.494 19.772 12.9459C20.113 11.3978 20.071 9.79151 19.6495 8.26283C19.2281 6.73415 18.4396 5.32809 17.3507 4.16359C16.2619 2.99909 14.9047 2.11041 13.394 1.57272C11.8834 1.03504 10.2637 0.864169 8.67188 1.07457C7.08011 1.28497 5.56313 1.87045 4.24926 2.78148C2.93539 3.69251 1.86329 4.9023 1.12365 6.30849C0.384015 7.71468 -0.00140285 9.27591 3.83677e-06 10.8601C0.000543632 13.1631 0.823267 15.3923 2.32381 17.1566L2.30951 17.1686C2.35955 17.2278 2.41673 17.2786 2.4682 17.3371C2.53253 17.4097 2.60186 17.4781 2.66834 17.5486C2.86848 17.763 3.07434 17.9689 3.29021 18.1621C3.35597 18.2213 3.42388 18.2763 3.49035 18.3327C3.71909 18.5273 3.95426 18.712 4.198 18.8841C4.22945 18.9052 4.25805 18.9327 4.2895 18.9546V18.9461C5.96362 20.1083 7.96076 20.732 10.0079 20.732C12.055 20.732 14.0521 20.1083 15.7262 18.9461V18.9546C15.7577 18.9327 15.7856 18.9052 15.8177 18.8841C16.0608 18.7113 16.2966 18.5273 16.5254 18.3327C16.5919 18.2763 16.6598 18.2206 16.7255 18.1621C16.9414 17.9682 17.1473 17.763 17.3474 17.5486C17.4139 17.4781 17.4825 17.4097 17.5475 17.3371C17.5983 17.2786 17.6562 17.2278 17.7062 17.1679L17.6905 17.1566ZM10.0072 5.21935C10.6433 5.21935 11.2652 5.40543 11.7942 5.75408C12.3232 6.10273 12.7354 6.59827 12.9789 7.17805C13.2223 7.75782 13.286 8.39579 13.1619 9.01128C13.0378 9.62677 12.7315 10.1921 12.2816 10.6359C11.8318 11.0796 11.2586 11.3818 10.6347 11.5042C10.0107 11.6267 9.36397 11.5638 8.77622 11.3237C8.18847 11.0835 7.6861 10.6768 7.33266 10.1551C6.97922 9.63327 6.79057 9.01982 6.79057 8.39227C6.79057 7.55076 7.12946 6.74371 7.73268 6.14868C8.33591 5.55364 9.15406 5.21935 10.0072 5.21935ZM4.29378 17.1566C4.30618 16.2308 4.6876 15.347 5.35551 14.6965C6.02343 14.046 6.92413 13.681 7.86276 13.6805H12.1515C13.0902 13.681 13.9909 14.046 14.6588 14.6965C15.3267 15.347 15.7081 16.2308 15.7205 17.1566C14.1529 18.5501 12.1174 19.3213 10.0072 19.3213C7.89689 19.3213 5.86145 18.5501 4.29378 17.1566Z" fill="white" fill-opacity="0.6"/>
</svg>
