<svg width="20" height="20" viewBox="0 0 20 20" fill="none" xmlns="http://www.w3.org/2000/svg">
<path d="M18.3659 10.922C18.2027 10.7518 18.1127 10.5329 18.1127 10.3062C18.1127 10.0796 18.2027 9.86069 18.3659 9.69042L19.6688 8.34684C19.8123 8.20004 19.9015 8.01533 19.9234 7.8192C19.9454 7.62308 19.899 7.42562 19.7909 7.25517L17.7552 4.02682C17.6482 3.85656 17.4853 3.7216 17.2898 3.64118C17.0942 3.56076 16.8759 3.53899 16.6661 3.57896L14.7525 3.93352C14.509 3.97964 14.2555 3.94247 14.0398 3.82902C13.8242 3.71557 13.6613 3.53369 13.5819 3.31771L12.961 1.61023C12.8927 1.42491 12.7626 1.26394 12.5891 1.15009C12.4156 1.03624 12.2074 0.975251 11.994 0.975756H7.92255C7.70058 0.965136 7.48093 1.02141 7.29713 1.13597C7.11333 1.25054 6.9755 1.41711 6.90468 1.61023L6.33467 3.31771C6.25528 3.53369 6.09239 3.71557 5.87674 3.82902C5.6611 3.94247 5.40761 3.97964 5.16412 3.93352L3.19963 3.57896C3.00068 3.55319 2.79787 3.58197 2.61674 3.66167C2.43561 3.74136 2.28426 3.86842 2.18176 4.02682L0.146014 7.25517C0.0352295 7.42372 -0.014583 7.62007 0.00369848 7.81614C0.0219799 8.01221 0.107419 8.19796 0.247801 8.34684L1.5405 9.69042C1.70368 9.86069 1.79368 10.0796 1.79368 10.3062C1.79368 10.5329 1.70368 10.7518 1.5405 10.922L0.247801 12.2656C0.107419 12.4145 0.0219799 12.6003 0.00369848 12.7963C-0.014583 12.9924 0.0352295 13.1887 0.146014 13.3573L2.18176 16.5856C2.28873 16.7559 2.45161 16.8909 2.64718 16.9713C2.84275 17.0517 3.06102 17.0735 3.27088 17.0335L5.18447 16.679C5.42797 16.6328 5.68145 16.67 5.8971 16.7835C6.11274 16.8969 6.27563 17.0788 6.35503 17.2948L6.97593 19.0022C7.04675 19.1954 7.18459 19.3619 7.36838 19.4765C7.55218 19.5911 7.77183 19.6473 7.9938 19.6367H12.0653C12.2787 19.6372 12.4868 19.5762 12.6604 19.4624C12.8339 19.3485 12.964 19.1876 13.0323 19.0022L13.6532 17.2948C13.7326 17.0788 13.8954 16.8969 14.1111 16.7835C14.3267 16.67 14.5802 16.6328 14.8237 16.679L16.7373 17.0335C16.9472 17.0735 17.1654 17.0517 17.361 16.9713C17.5566 16.8909 17.7195 16.7559 17.8264 16.5856L19.8622 13.3573C19.9702 13.1868 20.0166 12.9894 19.9947 12.7933C19.9727 12.5971 19.8836 12.4124 19.74 12.2656L18.3659 10.922ZM16.8493 12.1723L17.6636 13.0121L16.3607 15.0834L15.1596 14.8595C14.4265 14.7221 13.6639 14.8363 13.0166 15.1803C12.3692 15.5243 11.8822 16.0742 11.648 16.7256L11.2612 17.7706H8.65541L8.28898 16.7069C8.05472 16.0555 7.5677 15.5056 6.92036 15.1616C6.27301 14.8176 5.51042 14.7035 4.77733 14.8408L3.57624 15.0648L2.25301 13.0027L3.0673 12.163C3.56805 11.6498 3.84489 10.9854 3.84489 10.2969C3.84489 9.60838 3.56805 8.94401 3.0673 8.43081L2.25301 7.59107L3.55588 5.53836L4.75697 5.76229C5.49006 5.89966 6.25266 5.78551 6.9 5.44151C7.54734 5.09751 8.03436 4.54761 8.26862 3.8962L8.65541 2.84185H11.2612L11.648 3.90553C11.8822 4.55694 12.3692 5.10684 13.0166 5.45084C13.6639 5.79484 14.4265 5.90899 15.1596 5.77162L16.3607 5.54769L17.6636 7.61906L16.8493 8.4588C16.3541 8.97082 16.0808 9.63135 16.0808 10.3156C16.0808 10.9998 16.3541 11.6603 16.8493 12.1723ZM9.95829 6.57404C9.15302 6.57404 8.36584 6.79293 7.69629 7.20303C7.02674 7.61313 6.50489 8.19602 6.19673 8.87799C5.88857 9.55996 5.80794 10.3104 5.96504 11.0344C6.12214 11.7583 6.50991 12.4233 7.07931 12.9453C7.64872 13.4673 8.37419 13.8227 9.16398 13.9667C9.95377 14.1107 10.7724 14.0368 11.5164 13.7543C12.2603 13.4719 12.8962 12.9935 13.3436 12.3797C13.791 11.766 14.0298 11.0444 14.0298 10.3062C14.0298 9.3164 13.6008 8.3671 12.8373 7.66718C12.0737 6.96726 11.0381 6.57404 9.95829 6.57404ZM9.95829 12.1723C9.55566 12.1723 9.16207 12.0629 8.82729 11.8578C8.49251 11.6528 8.23159 11.3613 8.07751 11.0204C7.92343 10.6794 7.88311 10.3042 7.96166 9.94218C8.04021 9.58019 8.2341 9.24769 8.5188 8.98671C8.8035 8.72573 9.16624 8.548 9.56113 8.476C9.95603 8.40399 10.3653 8.44095 10.7373 8.58219C11.1093 8.72343 11.4273 8.96261 11.6509 9.26949C11.8746 9.57637 11.994 9.93716 11.994 10.3062C11.994 10.8012 11.7795 11.2758 11.3978 11.6258C11.016 11.9757 10.4982 12.1723 9.95829 12.1723Z" fill="white" fill-opacity="0.6"/>
</svg>
