<svg width="8" height="8" viewBox="0 0 8 8" fill="none" xmlns="http://www.w3.org/2000/svg">
<path d="M7.97775 2.87201C7.95262 2.79796 7.90634 2.7329 7.84465 2.68485C7.78296 2.63681 7.70855 2.60788 7.6306 2.60164L5.3505 2.42047L4.36383 0.236356C4.33241 0.16601 4.2813 0.106262 4.21667 0.0643215C4.15204 0.0223815 4.07666 4.2346e-05 3.99961 6.01434e-08C3.92257 -4.22257e-05 3.84716 0.0222142 3.78248 0.0640832C3.7178 0.105952 3.66663 0.165645 3.63513 0.235956L2.64846 2.42047L0.368362 2.60164C0.291754 2.60771 0.218517 2.63572 0.157412 2.68232C0.0963065 2.72893 0.0499211 2.79215 0.0238046 2.86442C-0.00231185 2.93669 -0.00705344 3.01496 0.0101471 3.08986C0.0273477 3.16476 0.0657621 3.23311 0.120795 3.28675L1.80577 4.92933L1.20985 7.50979C1.19176 7.5879 1.19756 7.66965 1.2265 7.74442C1.25544 7.81919 1.30618 7.88354 1.37215 7.92911C1.43812 7.97468 1.51626 7.99938 1.59643 7.99999C1.67661 8.0006 1.75512 7.9771 1.82177 7.93254L3.99948 6.48073L6.17719 7.93254C6.24532 7.97777 6.32566 8.00105 6.40741 7.99926C6.48917 7.99747 6.56841 7.97068 6.63449 7.92251C6.70057 7.87433 6.75031 7.80708 6.77702 7.72979C6.80373 7.6525 6.80614 7.56889 6.78391 7.49019L6.05241 4.93053L7.86657 3.29795C7.98535 3.19076 8.02895 3.02359 7.97775 2.87201Z" fill="#FFEF62"/>
</svg>
